<?xml version="1.0" encoding="UTF-8"?>
<!DOCTYPE svg PUBLIC "-//W3C//DTD SVG 1.1//EN" "http://www.w3.org/Graphics/SVG/1.1/DTD/svg11.dtd">
<svg xmlns="http://www.w3.org/2000/svg" version="1.1" width="1080px" height="1080px" style="shape-rendering:geometricPrecision; text-rendering:geometricPrecision; image-rendering:optimizeQuality; fill-rule:evenodd; clip-rule:evenodd" xmlns:xlink="http://www.w3.org/1999/xlink">
<g><path style="opacity:0.989" fill="#57c401" d="M 326.5,269.5 C 401.501,269.333 476.501,269.5 551.5,270C 610.713,274.003 656.546,300.503 689,349.5C 706.659,380.773 715.325,414.44 715,450.5C 717.66,505.164 717.993,559.831 716,614.5C 706.401,722.433 647.567,780.266 539.5,788C 498.132,789.953 457.132,786.953 416.5,779C 372.377,770.867 344.211,745.367 332,702.5C 328.786,687.665 326.786,672.665 326,657.5C 325.169,528.097 325.335,398.764 326.5,269.5 Z M 504.5,397.5 C 517.705,397.401 529.372,401.568 539.5,410C 553.052,424.094 563.052,440.427 569.5,459C 546.502,459.5 523.502,459.667 500.5,459.5C 500.333,440.83 500.5,422.164 501,403.5C 501.424,400.975 502.59,398.975 504.5,397.5 Z M 561.5,409.5 C 584.455,420.444 602.788,436.777 616.5,458.5C 606.167,459.833 595.833,459.833 585.5,458.5C 582.827,449.983 579.661,441.65 576,433.5C 571.396,425.278 566.562,417.278 561.5,409.5 Z M 433.5,436.5 C 445.851,437.041 454.017,443.041 458,454.5C 458.132,460.507 458.132,466.507 458,472.5C 461.833,476.333 465.667,480.167 469.5,484C 474.489,484.499 479.489,484.666 484.5,484.5C 484.2,489.099 484.533,493.599 485.5,498C 478.5,498.667 471.5,498.667 464.5,498C 458.617,491.614 452.284,485.781 445.5,480.5C 423.264,485.441 412.764,476.441 414,453.5C 417.294,444.033 423.794,438.366 433.5,436.5 Z M 501.5,475.5 C 525.502,475.333 549.502,475.5 573.5,476C 575.695,489.057 577.361,502.223 578.5,515.5C 552.5,515.5 526.5,515.5 500.5,515.5C 500.186,502.087 500.519,488.754 501.5,475.5 Z M 590.5,475.5 C 601.838,475.333 613.172,475.5 624.5,476C 630.095,488.548 633.095,501.715 633.5,515.5C 620.829,515.667 608.162,515.5 595.5,515C 593.231,501.948 591.565,488.781 590.5,475.5 Z M 402.5,500.5 C 413.252,501.422 421.252,506.588 426.5,516C 446.167,516.333 465.833,516.667 485.5,517C 484.167,521.333 484.167,525.667 485.5,530C 466.167,530.333 446.833,530.667 427.5,531C 422.784,536.383 417.451,541.05 411.5,545C 394.399,548.268 384.066,541.268 380.5,524C 382.25,510.754 389.584,502.921 402.5,500.5 Z M 576.5,531.5 C 577.993,532.312 578.66,533.645 578.5,535.5C 576.918,547.158 575.418,558.825 574,570.5C 561.907,571.162 549.74,571.495 537.5,571.5C 525.26,571.495 513.093,571.162 501,570.5C 500.5,557.838 500.333,545.171 500.5,532.5C 526.005,532.831 551.339,532.498 576.5,531.5 Z M 594.5,532.5 C 607.5,532.5 620.5,532.5 633.5,532.5C 632.933,545.934 629.933,558.768 624.5,571C 613.172,571.5 601.838,571.667 590.5,571.5C 592.021,558.517 593.355,545.517 594.5,532.5 Z M 465.5,548.5 C 472.2,548.17 478.866,548.503 485.5,549.5C 484.561,553.765 484.228,558.098 484.5,562.5C 479.821,562.334 475.155,562.501 470.5,563C 466.301,567.534 461.801,571.701 457,575.5C 462.283,590.329 458.116,601.495 444.5,609C 429.664,612.999 419.497,607.832 414,593.5C 411.959,577.24 418.959,567.573 435,564.5C 439.155,565.5 443.321,566 447.5,566C 453.395,559.936 459.395,554.103 465.5,548.5 Z M 500.5,587.5 C 523.502,587.333 546.502,587.5 569.5,588C 562.979,608.185 551.979,625.519 536.5,640C 527.033,647.267 516.366,650.267 504.5,649C 502.277,648.348 501.11,646.848 501,644.5C 500.5,625.503 500.333,606.503 500.5,587.5 Z M 585.5,587.5 C 596.172,587.333 606.839,587.5 617.5,588C 606.545,605.289 592.545,619.622 575.5,631C 570.113,634.53 564.446,637.197 558.5,639C 571.826,624.184 580.826,607.017 585.5,587.5 Z"/></g>
</svg>
